# xmcd
#
# Track frame offsets:
#	150
#	12983
#	29680
#	43345
#	58804
#	70167
#	90568
#	109689
#	126009
#	155471
#	174106
#	208427
#
# Disc length: 2941 seconds
#
# Revision: 1
# Processed by: cddbd v1.5.2PL0 Copyright (c) Steve Scherf et al.
# Submitted via: EZCDAudioConverter 8.1.0.1
#
DISCID=a70b7b0c
DTITLE=John Fullbright - Songs
DYEAR=2014
DGENRE=Country
TTITLE0=Happy
TTITLE1=When You're Here
TTITLE2=Keeping Hope Alive
TTITLE3=She Knows
TTITLE4=Until You Were Gone
TTITLE5=Write A Song
TTITLE6=Never Cry Again
TTITLE7=Going Home
TTITLE8=All That You Know
TTITLE9=The One That Lives Too Far
TTITLE10=High Road
TTITLE11=Very First Time
EXTD=
EXTT0=
EXTT1=
EXTT2=
EXTT3=
EXTT4=
EXTT5=
EXTT6=
EXTT7=
EXTT8=
EXTT9=
EXTT10=
EXTT11=
PLAYORDER=
